<svg width="25" height="22" viewBox="0 0 25 22" fill="none" xmlns="http://www.w3.org/2000/svg">
<path d="M13.0015 0.883188C12.3752 0.868055 11.8125 1.19702 11.8304 2.02414L0.947266 10.8632L0.961586 11.2155V20.3053L1.54395 20.1689L9.46105 18.3122L9.7372 19.2104L11.2464 19.0406L11.0734 17.933L14.5932 17.1078L15.0423 17.6284L16.1514 17.7108L16.1038 16.7539L22.296 15.3003V15.3018C22.3651 15.2917 22.4314 15.2754 22.4959 15.2543C22.4971 15.2538 22.498 15.253 22.4991 15.2526L23.556 15.005L23.9226 14.9194V14.5544L24.8636 7.0689C25.3151 6.19988 24.5338 4.70996 22.8974 5.03136C23.1387 4.0203 20.9178 3.60257 20.2552 4.15538C20.4209 3.23106 18.3568 2.03704 17.6194 3.07948C17.8546 1.9238 15.2831 1.0042 14.6311 2.04633C14.5088 1.36317 13.7135 0.900301 13.0014 0.883137L13.0015 0.883188ZM12.4794 2.89692C12.5981 3.03961 12.8573 3.17835 13.1602 3.24447C13.4631 3.31048 13.8012 3.30185 13.9918 3.25234L14.4457 3.13488L14.5694 3.58876C14.6817 4.00532 14.9174 4.16411 15.3026 4.24739C15.6878 4.33068 16.2049 4.26466 16.615 4.10135L17.1419 3.8903L17.2561 4.4457C17.3069 4.69381 17.6314 5.00896 18.086 5.17253C18.5407 5.33604 19.0585 5.31116 19.2809 5.17253L19.8539 4.81543L19.9951 5.47559C20.0574 5.76768 20.2253 5.96969 20.4854 6.11513C20.7455 6.26057 21.0988 6.32902 21.4534 6.28652L21.5677 7.22917C21.0276 7.29386 20.4818 7.20058 20.0219 6.94352C19.7143 6.77148 19.4539 6.51046 19.2729 6.18973C18.7835 6.3116 18.2489 6.2398 17.7654 6.06582C17.2688 5.88722 16.7872 5.58167 16.5165 5.12799C16.0628 5.24418 15.574 5.27597 15.1025 5.17405C14.5924 5.0637 14.0973 4.74556 13.8172 4.23297C13.5409 4.25354 13.2507 4.23485 12.9587 4.17102C12.5164 4.07454 12.0664 3.88421 11.7494 3.50299L12.4794 2.89677L12.4794 2.89692ZM22.0786 8.79541L22.0834 8.81293C22.1667 8.79338 22.1823 8.7977 22.2691 8.86849C22.356 8.93907 22.4793 9.10289 22.585 9.34294C22.791 9.81114 22.9359 10.5427 22.9737 11.298V12.1105C22.9481 12.6276 22.8742 13.1197 22.7548 13.5085C22.6663 13.7966 22.5526 14.026 22.4422 14.1655C22.3652 14.2629 22.3011 14.3138 22.239 14.3402L1.91059 19.1088V12.6056C8.64509 10.8537 15.3681 9.42063 22.0787 8.79552L22.0786 8.79541ZM18.4097 17.7885L17.0672 17.9441L17.8067 19.0263L19.0747 18.8009L18.4097 17.7885ZM15.2216 19.0596L13.5966 19.3247L14.1631 19.9817L15.274 20.0642L15.2217 19.0596L15.2216 19.0596ZM7.23627 20.5576L7.15375 21.3147L8.2948 21.4638L8.7232 20.6862L7.23632 20.5577L7.23627 20.5576ZM12.6905 20.7973L11.4559 20.9576L11.5448 21.7781L13.1539 21.6384L12.6905 20.7974L12.6905 20.7973Z" fill="white"/>
</svg>
