<svg width="31" height="31" viewBox="0 0 31 31" fill="none" xmlns="http://www.w3.org/2000/svg">
<path d="M5.61312 9.60329L6.43645 8.76413C7.35478 7.84579 8.87479 7.84579 9.82479 8.82746L9.85645 8.87496C10.6323 9.66663 11.6615 10.0466 12.7856 10.1575C14.3215 10.3 15.8098 11.1233 16.7915 12.6116C17.8681 14.3216 17.8523 16.6016 16.7281 18.2958C16.3041 18.9663 15.7339 19.5322 15.0602 19.9512C14.3865 20.3701 13.6268 20.6313 12.8379 20.715C12.049 20.7988 11.2514 20.703 10.5048 20.4349C9.75812 20.1667 9.08181 19.7332 8.52645 19.1666C7.63979 18.2958 7.13312 17.1716 7.00645 16C6.87979 14.8441 6.42062 13.7516 5.61312 12.9441C4.69478 12.0416 4.69478 10.5216 5.61312 9.60329ZM12.2631 22.3333C10.4106 22.3333 8.68478 21.6208 7.40228 20.3066C6.29395 19.1666 5.59729 17.7416 5.42312 16.19C5.37562 15.715 5.23312 15.0975 4.85312 14.5275C3.90312 15.8416 3.33312 17.425 3.33312 19.1666C3.33312 21.7633 4.59979 24.0591 6.54729 25.5H27.0831V23.9166C27.0831 18.2166 23.299 13.3875 18.1215 11.8041C19.5306 14.0208 19.499 16.9816 18.0581 19.1666C16.7915 21.1458 14.6065 22.3333 12.2631 22.3333ZM20.4015 8.96996H22.4123C23.7898 8.96996 24.9931 9.93579 24.9931 11.6616V12.8333H26.9723V11.25C26.9723 8.87496 24.8664 7.06996 22.4123 7.06996H20.4015C19.0873 7.06996 17.9631 5.77163 17.9631 4.44163C17.9631 3.11163 19.0873 2.12996 20.4015 2.12996V0.166626C17.9631 0.166626 15.9998 2.12996 15.9998 4.56829C15.9998 7.00663 17.9631 8.96996 20.4015 8.96996ZM4.12478 8.95413C4.21978 8.79579 4.34645 8.63746 4.48895 8.47913L5.31228 7.65579C5.45478 7.51329 5.61312 7.40246 5.77145 7.29163L3.53895 5.02746C3.76062 4.59996 3.68145 4.04579 3.33312 3.68163C3.10638 3.46091 2.80246 3.33741 2.48603 3.33741C2.16961 3.33741 1.86569 3.46091 1.63895 3.68163C1.41729 3.90329 1.30645 4.17246 1.29062 4.45746C1.00562 4.47329 0.736452 4.58413 0.514785 4.80579C0.0556185 5.26496 0.0556185 6.02496 0.514785 6.49996C0.878952 6.84829 1.41728 6.92746 1.86062 6.70579L4.12478 8.95413ZM26.1173 3.95079C26.9248 3.14329 27.4314 2.05079 27.4314 0.831626H25.4523C25.4523 2.14579 24.344 3.25413 23.0298 3.25413V5.21746C25.9748 5.21746 28.2864 7.62413 28.2864 10.5691V14.4166H30.2498V10.5691C30.2577 9.188 29.8736 7.83297 29.1421 6.66144C28.4106 5.48991 27.3617 4.54997 26.1173 3.95079ZM4.91645 30.25H27.0831C28.8406 30.25 30.2498 28.8408 30.2498 27.0833H1.74978C1.74978 27.9231 2.08341 28.7286 2.67728 29.3225C3.27115 29.9163 4.0766 30.25 4.91645 30.25Z" fill="white"/>
</svg>
