<svg width="20" height="26" viewBox="0 0 20 26" fill="none" xmlns="http://www.w3.org/2000/svg">
<path d="M16.1649 0.43357C16.2394 0.507883 16.2985 0.596164 16.3388 0.693356C16.3792 0.790548 16.3999 0.894742 16.3999 0.99997C16.3999 1.1052 16.3792 1.20939 16.3388 1.30658C16.2985 1.40378 16.2394 1.49206 16.1649 1.56637L14.3297 3.39997H16.9281C17.1739 3.40004 17.4137 3.47558 17.6151 3.61637C17.8166 3.75715 17.9699 3.9564 18.0545 4.18717L19.5217 8.18717C19.5881 8.36848 19.6098 8.56314 19.5849 8.75463C19.56 8.94612 19.4893 9.12877 19.3787 9.28708C19.2682 9.44538 19.121 9.57467 18.9498 9.66396C18.7786 9.75325 18.5884 9.79991 18.3953 9.79997H17.8529L15.5729 23.1392C15.4457 23.8835 15.0593 24.5588 14.4822 25.0457C13.9051 25.5327 13.1744 25.7998 12.4193 25.8H7.57929C6.82393 25.8002 6.09283 25.5332 5.51539 25.0462C4.93794 24.5593 4.55137 23.8837 4.42409 23.1392L2.14409 9.79997H1.60009C1.40674 9.79984 1.21629 9.753 1.04494 9.66342C0.873594 9.57385 0.726428 9.4442 0.615972 9.2855C0.505516 9.12681 0.435041 8.94378 0.410547 8.75199C0.386053 8.5602 0.408266 8.36533 0.475293 8.18397L1.95209 4.18397C2.03716 3.9538 2.19075 3.75524 2.39216 3.61505C2.59356 3.47487 2.8331 3.3998 3.07849 3.39997H12.1057C12.1409 3.33912 12.1839 3.28317 12.2337 3.23357L15.0337 0.43357C15.1837 0.283593 15.3872 0.199341 15.5993 0.199341C15.8114 0.199341 16.0149 0.283593 16.1649 0.43357ZM2.17449 8.19997H17.8225L16.6481 4.99997H3.35689L2.17449 8.19997Z" fill="white"/>
</svg>
