<svg width="18" height="24" viewBox="0 0 18 24" fill="none" xmlns="http://www.w3.org/2000/svg">
<path d="M10.6039 0.729004L10.0774 7.84813L9.8125 7.87088V3.24125H8.1875V7.86925C7.99312 7.85528 7.79914 7.83632 7.60575 7.81238L6.76562 0.870379L5.152 1.06538L5.9255 7.45813C5.6746 7.38256 5.42686 7.29691 5.18287 7.20138L4.38662 3.6345L2.80225 3.98713L3.293 6.19225C3.49686 6.3362 3.70725 6.47067 3.9235 6.59525C5.03825 7.24038 6.72662 7.89688 9 7.89688C11.2734 7.89688 12.9617 7.24038 14.0765 6.59363L13.8035 6.74638L14.473 3.68163L12.8854 3.33388L11.9786 7.48575L11.7284 7.55563L12.224 0.846004L10.6039 0.729004Z" fill="white"/>
<path d="M17.1007 6.16951L16.9853 6.34176L16.9284 6.41651L16.9252 6.41976L16.9219 6.42301L16.9122 6.43438L16.8813 6.46688L16.7773 6.57738C16.6523 6.70345 16.5222 6.82434 16.3873 6.93976C15.9234 7.33964 15.4228 7.69491 14.8923 8.00088C13.5695 8.76788 11.6017 9.52351 9.00004 9.52351C6.39841 9.52351 4.43054 8.76788 3.10779 8.00088C2.57723 7.69491 2.07669 7.33964 1.61279 6.93976C1.43998 6.79144 1.27509 6.63414 1.11879 6.46851L1.08629 6.43438L1.07816 6.42301L1.07491 6.41976L1.07329 6.41813L1.68754 5.88513L1.07166 6.41651L1.01479 6.34176L0.899414 6.16951L2.50329 22.6421C2.52307 22.843 2.61689 23.0293 2.76648 23.1647C2.91607 23.3002 3.11072 23.3752 3.31254 23.375H14.6875C14.8894 23.3752 15.084 23.3002 15.2336 23.1647C15.3832 23.0293 15.477 22.843 15.4968 22.6421L17.1007 6.16951Z" fill="white"/>
</svg>
